Coordinates
version=1
nRows=21
nColumns=33
inDegrees=yes

Units are S.I. units (second, meters, Newtons, ...)
Angles are in degrees.

endheader
time	ground_thorax_rot_x	ground_thorax_rot_y	ground_thorax_rot_z	ground_thorax_tx	ground_thorax_ty	ground_thorax_tz	clav_prot_r	clav_elev_r	scapula_abduction_r	scapula_elevation_r	scapula_upward_rot_r	scapula_winging_r	shoulder_elv_r	plane_of_elev_r	axial_rot_r	elbow_flexion_r	pro_sup_r	wrist_flex_r	wrist_dev_r	clav_prot_l	clav_elev_l	scapula_abduction_l	scapula_elevation_l	scapula_upward_rot_l	scapula_winging_l	shoulder_elv_l	plane_of_elev_l	axial_rot_l	elbow_flexion_l	pro_sup_l	wrist_flex_l	wrist_dev_l
      1.47000000	      1.81381841	     -1.03373514	     -6.33109975	     -0.08376236	      1.05484811	     -0.00327952	    -11.95201506	     -9.85761976	    -12.02231771	     -2.67486497	      3.78097565	      1.67019838	     55.98713592	    -44.64350687	     62.45937027	     57.88796744	     -2.08473641	     13.22695614	     10.19585843	     -6.38233310	     -7.55813090	      5.60768336	     -2.60020497	     -7.59935799	     -2.49701915	     60.33220856	    -50.99194920	    -46.25298228	     60.00470605	     -0.62961375	      9.60031921	    -18.42142045
      1.48000000	      1.67109335	     -0.59584119	     -6.59411729	     -0.08351475	      1.05430752	     -0.00314161	    -12.42530035	     -9.50261804	    -12.10312389	     -2.94709106	      5.47212001	      1.24647873	     53.82983535	    -45.52445460	     61.42527126	     57.33706548	     -1.31512519	     14.02331196	     10.82533770	     -5.64432391	     -6.80202468	      3.75668622	     -2.56242481	     -5.59413390	     -1.57819031	     57.76705548	    -51.68228980	    -44.81261693	     59.70434061	      1.41780635	     10.80274237	    -19.27291323
      1.49000000	      1.64829932	     -0.64644852	     -6.57831833	     -0.08311641	      1.05420121	     -0.00305797	    -12.46645727	     -9.45509936	    -12.19130435	     -2.89925646	      5.45164012	      1.23790951	     53.81950921	    -45.57921378	     61.27229467	     57.50946141	     -1.34476927	     14.02241605	     10.71133899	     -5.64884092	     -6.72781337	      3.79307597	     -2.64875225	     -5.64475903	     -1.57050777	     57.73454482	    -51.82912881	    -44.80983189	     59.84848499	      1.43603926	     10.75041543	    -19.30795542
      1.50000000	      1.64275049	     -0.72233590	     -6.59340719	     -0.08296512	      1.05433465	     -0.00303794	    -12.49711925	     -9.46167649	    -12.23126411	     -2.91338017	      5.47260435	      1.24019482	     53.82103247	    -45.57303206	     61.19397755	     57.58178431	     -1.36233149	     14.02934015	     10.66389483	     -5.64040296	     -6.70103817	      3.80186474	     -2.69714153	     -5.70706010	     -1.57081263	     57.68512337	    -51.90408767	    -44.84618588	     59.88849545	      1.44437211	     10.73651870	    -19.31757124
      1.51000000	      1.63497606	     -0.71246702	     -6.61415944	     -0.08262316	      1.05452695	     -0.00311097	    -12.50087022	     -9.46285206	    -12.23995413	     -2.91367792	      5.46989218	      1.23947283	     53.81272913	    -45.57474211	     61.18502834	     57.60242568	     -1.36576628	     14.03263616	     10.65744571	     -5.64097646	     -6.69472146	      3.81490815	     -2.71202459	     -5.73305004	     -1.57595636	     57.66237352	    -51.93304662	    -44.85779177	     59.89247088	      1.44613881	     10.73535108	    -19.31874211
      1.52000000	      1.57538957	     -0.75676948	     -6.74829304	     -0.08237320	      1.05411846	     -0.00288346	    -12.47501781	     -9.43614506	    -12.26615513	     -2.84281553	      5.33375322	      1.25697222	     53.74143715	    -45.61888074	     60.70806574	     58.03302001	     -1.62703539	     13.90930753	      9.97448445	     -5.57477067	     -6.69232283	      3.69498098	     -2.71242353	     -5.72305837	     -1.54841638	     57.73536823	    -52.15467294	    -44.83456271	     60.18845230	      1.47509157	     10.16596333	    -19.36629480
      1.53000000	      1.57406031	     -0.75467817	     -6.74720763	     -0.08219120	      1.05428327	     -0.00286495	    -12.47505585	     -9.43611051	    -12.26574233	     -2.84375254	      5.33552161	      1.25746922	     53.74195563	    -45.61713401	     60.70666571	     58.03472500	     -1.62742098	     13.90958951	      9.97396402	     -5.57491839	     -6.69137715	      3.69605021	     -2.71316936	     -5.72492928	     -1.54783445	     57.73399080	    -52.15660495	    -44.83514958	     60.18848176	      1.47517873	     10.16576719	    -19.36626090
      1.54000000	      1.53328662	     -0.83263018	     -6.69454528	     -0.08183413	      1.05428020	     -0.00277382	    -12.54579528	     -9.42098440	    -12.36172032	     -2.85229559	      5.39344422	      1.25122886	     53.73526495	    -45.62792055	     60.60675347	     58.19794722	     -1.66525659	     13.92916051	      9.92150591	     -5.60171450	     -6.64581013	      3.76189360	     -2.76694884	     -5.75709451	     -1.55544146	     57.72374114	    -52.27088373	    -44.80669472	     60.16652933	      1.47608234	     10.10859420	    -19.35804037
      1.55000000	      1.53154638	     -0.83015299	     -6.69030610	     -0.08156654	      1.05438786	     -0.00275688	    -12.54513313	     -9.42165404	    -12.36059991	     -2.85360113	      5.39534547	      1.25176076	     53.73521116	    -45.62505665	     60.60542608	     58.20077893	     -1.66572808	     13.92953098	      9.92089970	     -5.60158187	     -6.64639892	      3.76209984	     -2.76625661	     -5.75683951	     -1.55542195	     57.72336988	    -52.27003626	    -44.80632978	     60.16757532	      1.47600777	     10.10790576	    -19.35822145
      1.56000000	      1.46585325	     -0.84540976	     -6.68220188	     -0.08132631	      1.05433307	     -0.00263967	    -12.59703674	     -9.39683679	    -12.43755804	     -2.84506264	      5.42982570	      1.24125228	     53.68006114	    -45.62181854	     60.51874205	     58.47702994	     -1.71406112	     13.94320190	      9.84864431	     -5.63687198	     -6.62425983	      3.82049902	     -2.77740521	     -5.73560991	     -1.56157798	     57.75859702	    -52.32642422	    -44.73702287	     60.17612790	      1.48265464	      9.99371590	    -19.35879139
      1.57000000	      1.46472238	     -0.84351437	     -6.67566971	     -0.08101306	      1.05439654	     -0.00262702	    -12.59642293	     -9.39762135	    -12.43520866	     -2.84680230	      5.43325394	      1.24276399	     53.68135120	    -45.61764783	     60.51673631	     58.47903281	     -1.71451993	     13.94319724	      9.84775019	     -5.63623298	     -6.62510852	      3.81964972	     -2.77604397	     -5.73340774	     -1.56138319	     57.75990282	    -52.32365638	    -44.73595479	     60.17759437	      1.48258695	      9.99262768	    -19.35907758
      1.58000000	      1.45161435	     -0.82553282	     -6.63363050	     -0.08099697	      1.05457908	     -0.00272378	    -12.59686235	     -9.40614179	    -12.42264661	     -2.86223546	      5.45561256	      1.23833230	     53.68865008	    -45.58749866	     60.49943910	     58.50392832	     -1.71860240	     13.94368141	      9.83922121	     -5.63897827	     -6.63105510	      3.81752418	     -2.76503548	     -5.71928575	     -1.55636004	     57.77130623	    -52.30808398	    -44.72528333	     60.18436630	      1.48336394	      9.98078185	    -19.36064399
      1.59000000	      1.45039408	     -0.82486870	     -6.62663325	     -0.08068022	      1.05460680	     -0.00270994	    -12.59594060	     -9.40697740	    -12.42082306	     -2.86344271	      5.45851803	      1.24012482	     53.68867788	    -45.58356495	     60.49775998	     58.50788048	     -1.71905816	     13.94389007	      9.83829187	     -5.63808570	     -6.63206572	      3.81584739	     -2.76313994	     -5.71546562	     -1.55845083	     57.77374413	    -52.30418151	    -44.72345831	     60.18549626	      1.48341717	      9.97913510	    -19.36087520
      1.60000000	      1.46925411	     -0.76751051	     -6.91943154	     -0.08063288	      1.05442051	     -0.00253630	    -12.60936134	     -9.40523839	    -12.40964712	     -2.88670168	      5.52922932	      1.22542525	     53.53156375	    -45.51270159	     60.22461728	     59.05428602	     -1.75235468	     13.01575335	      8.99018621	     -5.60852058	     -6.75036480	      3.77334408	     -2.68927407	     -5.80506067	     -1.59579382	     57.85940153	    -52.05349108	    -44.67735074	     60.22446140	      2.14818821	      8.26071867	    -19.38779653
      1.61000000	      1.46833290	     -0.76650685	     -6.91101824	     -0.08029950	      1.05440573	     -0.00253394	    -12.60837025	     -9.40598332	    -12.40705055	     -2.88809700	      5.53207825	      1.22733964	     53.53212226	    -45.50875805	     60.22376455	     59.05633679	     -1.75244088	     13.01619179	      8.99000300	     -5.60783693	     -6.75118156	      3.77140531	     -2.68742008	     -5.80152534	     -1.59721398	     57.86170914	    -52.04979411	    -44.67598598	     60.22561708	      2.14820600	      8.26004212	    -19.38803966
      1.62000000	      1.45651321	     -0.74847510	     -6.85538449	     -0.08035860	      1.05453449	     -0.00257880	    -12.60293086	     -9.41129232	    -12.38835295	     -2.89800923	      5.54753595	      1.22402912	     53.53425774	    -45.48120856	     60.22142324	     59.07841762	     -1.75191150	     13.02075956	      8.98936192	     -5.60972317	     -6.75911505	      3.76313904	     -2.66957110	     -5.77384023	     -1.59073654	     57.88588741	    -52.02339568	    -44.66023129	     60.23026800	      2.14945382	      8.25192045	    -19.38946338
      1.63000000	      1.45552761	     -0.74704683	     -6.84817507	     -0.08003665	      1.05447968	     -0.00257424	    -12.60149712	     -9.41198771	    -12.38578235	     -2.89884248	      5.54904986	      1.22562448	     53.53366718	    -45.47789939	     60.22161248	     59.08101936	     -1.75180833	     13.02126597	      8.98937507	     -5.60900818	     -6.76028991	      3.76102666	     -2.66721405	     -5.76993649	     -1.59277074	     57.88850818	    -52.01918910	    -44.65855977	     60.23100670	      2.14953107	      8.25101724	    -19.38965358
      1.64000000	      1.41570846	     -0.65719396	     -6.83302818	     -0.08013635	      1.05452203	     -0.00256438	    -12.55908728	     -9.39665304	    -12.33158995	     -2.87133579	      5.51444735	      1.21735581	     53.47889930	    -45.45573329	     60.29117728	     59.16791203	     -1.73494448	     13.03655354	      9.00181536	     -5.61274988	     -6.78228129	      3.74201022	     -2.62194139	     -5.70346422	     -1.58740789	     57.96022055	    -51.96018980	    -44.61563600	     60.21926983	      2.16519973	      8.21296067	    -19.39310522
      1.65000000	      1.40901136	     -0.65644381	     -6.81106124	     -0.08000539	      1.05449781	     -0.00257216	    -12.55551078	     -9.39791933	    -12.32044573	     -2.87614158	      5.52519775	      1.21609273	     53.48436962	    -45.44061833	     60.28982333	     59.17559270	     -1.73256739	     13.03786510	      9.00036369	     -5.61165746	     -6.78726953	      3.73389581	     -2.61278860	     -5.69102352	     -1.57943743	     57.97299690	    -51.94307763	    -44.60981051	     60.22319279	      2.16764677	      8.20645486	    -19.39529468
      1.66000000	      1.40823484	     -0.65571951	     -6.80434769	     -0.07971898	      1.05439698	     -0.00254453	    -12.55457552	     -9.39898807	    -12.31768703	     -2.87752015	      5.52676735	      1.21731937	     53.48437906	    -45.43716560	     60.28967112	     59.17697143	     -1.73230721	     13.03812247	      9.00019698	     -5.61081355	     -6.78846454	      3.73131737	     -2.61062358	     -5.68777703	     -1.58263607	     57.97462609	    -51.93865028	    -44.60879125	     60.22448663	      2.16779398	      8.20555898	    -19.39574411
      1.67000000	      1.40115238	     -0.64101186	     -6.76539183	     -0.07981801	      1.05445537	     -0.00253391	    -12.54438233	     -9.40522807	    -12.29569304	     -2.88466387	      5.53179622	      1.21541834	     53.48272531	    -45.41416890	     60.29644074	     59.18618645	     -1.72727515	     13.03975305	      8.99989609	     -5.60895345	     -6.80392761	      3.71721143	     -2.58744181	     -5.66346073	     -1.58043531	     57.99064392	    -51.89818190	    -44.59730146	     60.23877186	      2.17031425	      8.19442061	    -19.40218752
